<svg xmlns="http://www.w3.org/2000/svg" width="34" height="16" viewBox="0 0 34 16" fill="none"><path d="M18.9889 11.4913H18.4889V11.9913V15.5H15.5V0.5H20.9967C24.0313 0.5 26.5 2.96639 26.5 5.99572C26.5 9.02491 24.0314 11.4913 20.9967 11.4913H18.9889ZM18.4889 8.00757V8.50757H18.9889H20.9967C22.3829 8.50757 23.5111 7.3817 23.5111 5.99572C23.5111 4.60976 22.383 3.48387 20.9967 3.48387H18.9889H18.4889V3.98387V8.00757Z" fill="#0E0B3D" stroke="black"></path><path d="M3.98892 11.4907H3.48892V11.9907V15.4992H0.5V5.9921C0.5 2.96481 2.96711 0.5 6 0.5C9.0329 0.5 11.5 2.96482 11.5 5.99197V15.5H8.51108V11.9907V11.4907H8.01108H3.98892ZM3.48892 8.00717V8.50717H3.98892H8.01108H8.51108V8.00717V5.9921C8.51108 4.60788 7.38444 3.48367 6 3.48367C4.61556 3.48367 3.48892 4.60788 3.48892 5.9921V8.00717Z" fill="#0E0B3D" stroke="black"></path><path d="M30.5 0.5H33.5V15.5H30.5V0.5Z" fill="#0E0B3D" stroke="black"></path></svg>