<svg xmlns="http://www.w3.org/2000/svg" width="30" height="30" viewBox="0 0 30 30" fill="none"><path fill-rule="evenodd" clip-rule="evenodd" d="M28.4375 7.5C28.4375 5.925 27.8125 4.415 26.6988 3.30125C25.585 2.1875 24.075 1.5625 22.5 1.5625H7.5C5.925 1.5625 4.415 2.1875 3.30125 3.30125C2.1875 4.415 1.5625 5.925 1.5625 7.5V22.5C1.5625 24.075 2.1875 25.585 3.30125 26.6988C4.415 27.8125 5.925 28.4375 7.5 28.4375H22.5C24.075 28.4375 25.585 27.8125 26.6988 26.6988C27.8125 25.585 28.4375 24.075 28.4375 22.5V7.5ZM26.5625 7.5V22.5C26.5625 23.5775 26.135 24.6113 25.3725 25.3725C24.6113 26.135 23.5775 26.5625 22.5 26.5625H7.5C6.4225 26.5625 5.38875 26.135 4.6275 25.3725C3.865 24.6113 3.4375 23.5775 3.4375 22.5V7.5C3.4375 6.4225 3.865 5.38875 4.6275 4.6275C5.38875 3.865 6.4225 3.4375 7.5 3.4375H22.5C23.5775 3.4375 24.6113 3.865 25.3725 4.6275C26.135 5.38875 26.5625 6.4225 26.5625 7.5Z" fill="#0E0B3D"></path><path fill-rule="evenodd" clip-rule="evenodd" d="M15.6103 10.2041L12.6103 19.2041C12.4478 19.6953 12.7128 20.2266 13.2041 20.3903C13.6953 20.5528 14.2266 20.2878 14.3903 19.7966L17.3903 10.7966C17.5528 10.3053 17.2878 9.77406 16.7966 9.61031C16.3053 9.44781 15.7741 9.71281 15.6103 10.2041Z" fill="#0E0B3D"></path><path fill-rule="evenodd" clip-rule="evenodd" d="M18.8372 12.6622L21.1734 14.9997L18.8372 17.3372C18.4709 17.7022 18.4709 18.2972 18.8372 18.6622C19.2022 19.0284 19.7972 19.0284 20.1622 18.6622L23.1622 15.6622C23.5284 15.2959 23.5284 14.7034 23.1622 14.3372L20.1622 11.3372C19.7972 10.9709 19.2022 10.9709 18.8372 11.3372C18.4709 11.7022 18.4709 12.2972 18.8372 12.6622Z" fill="#0E0B3D"></path><path fill-rule="evenodd" clip-rule="evenodd" d="M9.83719 11.3372L6.83719 14.3372C6.47094 14.7034 6.47094 15.2959 6.83719 15.6622L9.83719 18.6622C10.2022 19.0284 10.7972 19.0284 11.1622 18.6622C11.5284 18.2972 11.5284 17.7022 11.1622 17.3372L8.82594 14.9997L11.1622 12.6622C11.5284 12.2972 11.5284 11.7022 11.1622 11.3372C10.7972 10.9709 10.2022 10.9709 9.83719 11.3372Z" fill="#0E0B3D"></path></svg>