<svg xmlns="http://www.w3.org/2000/svg" width="35" height="35" viewBox="0 0 35 35" fill="none"><path d="M22.8309 18.2789C22.2109 17.6588 21.3841 17.3173 20.5028 17.3173C19.6214 17.3173 18.7945 17.6589 18.1744 18.2791L17.7069 18.7467C17.5944 18.8592 17.4433 18.921 17.2812 18.921C17.1192 18.921 16.9681 18.8592 16.8558 18.7469L13.634 15.5251C13.4033 15.2944 13.4033 14.9046 13.6337 14.6742L14.1021 14.2062C15.3857 12.9223 15.3857 10.8335 14.102 9.5498L13.166 8.61396C12.5459 7.9938 11.719 7.65234 10.8378 7.65234C9.95656 7.65234 9.12976 7.99387 8.51015 8.61361L8.38245 8.74117C6.90309 10.2208 6.36592 12.4235 6.87 14.9436C7.34387 17.3131 8.69827 19.7116 10.6837 21.6973C13.1859 24.1992 16.3734 25.693 19.2102 25.6932H19.2107C20.9998 25.6932 22.5316 25.1072 23.6412 23.9978L23.7672 23.8714C25.0508 22.5878 25.0509 20.4991 23.7671 19.2152L22.8309 18.2789ZM22.3162 22.4219L22.1902 22.5483C21.4744 23.2641 20.4442 23.6423 19.2106 23.6423C19.2106 23.6423 19.2103 23.6423 19.2102 23.6423C16.9053 23.6421 14.2599 22.3729 12.1337 20.2471C10.4315 18.5446 9.27625 16.5182 8.88086 14.5414C8.51562 12.7152 8.85365 11.1703 9.83222 10.1916L9.95991 10.064C10.1926 9.83123 10.5044 9.70306 10.8378 9.70306C11.1712 9.70306 11.483 9.83123 11.7159 10.0641L12.6519 10.9999C13.136 11.484 13.136 12.2718 12.6521 12.7558L12.1837 13.224C11.1498 14.2581 11.1498 15.9409 12.1838 16.9752L15.4057 20.1969C15.9053 20.6967 16.5714 20.9718 17.2813 20.9718C17.9911 20.9718 18.6572 20.6967 19.1572 20.1968L19.6249 19.729C19.8576 19.4962 20.1694 19.368 20.5029 19.368C20.8363 19.368 21.1481 19.4962 21.3809 19.7291L22.317 20.6652C22.8011 21.1494 22.8011 21.9371 22.3162 22.4219Z" fill="#0E0B3D"></path><path d="M17.1035 14.2656C17.6613 14.2656 18.115 14.7193 18.115 15.277C18.115 15.8433 18.5741 16.3024 19.1404 16.3024C19.7067 16.3024 20.1658 15.8433 20.1658 15.277C20.1658 13.5885 18.7921 12.2148 17.1035 12.2148C16.5372 12.2148 16.0781 12.6739 16.0781 13.2402C16.0781 13.8065 16.5372 14.2656 17.1035 14.2656Z" fill="#0E0B3D"></path><path d="M17.1035 10.1934C18.4617 10.1934 19.7387 10.7224 20.6992 11.6828C21.6596 12.6434 22.1885 13.9204 22.1884 15.2787C22.1884 15.845 22.6475 16.3041 23.2138 16.3041C23.78 16.3041 24.2392 15.845 24.2392 15.2787C24.2393 13.3726 23.4971 11.5805 22.1493 10.2327C20.8015 8.88489 19.0095 8.14258 17.1035 8.14258C16.5372 8.14258 16.0781 8.60168 16.0781 9.16797C16.0781 9.73426 16.5372 10.1934 17.1035 10.1934Z" fill="#0E0B3D"></path><path d="M17.1035 4.06836C16.5372 4.06836 16.0781 4.52746 16.0781 5.09375C16.0781 5.66004 16.5372 6.11914 17.1035 6.11914C22.1536 6.11914 26.2622 10.2278 26.2622 15.2779C26.2622 15.8442 26.7213 16.3033 27.2876 16.3033C27.8539 16.3033 28.313 15.8442 28.313 15.2779C28.3129 9.09694 23.2844 4.06836 17.1035 4.06836Z" fill="#0E0B3D"></path><path d="M30.1309 3.49788C27.8753 1.24223 24.8875 0 21.7178 0H13.2822C10.1127 0 7.12483 1.24223 4.86911 3.49788C2.61332 5.7536 1.37109 8.74132 1.37109 11.9108V17.8499C1.37109 20.2804 2.10644 22.6225 3.49762 24.6231C4.71954 26.3802 6.36495 27.7638 8.28558 28.6563V32.5596C8.28558 34.8824 9.751 35 10.0447 35C10.6899 35 11.3301 34.631 11.9475 33.9031L15.4604 29.7608H21.7179C24.8875 29.7608 27.8753 28.5186 30.131 26.2629C32.3866 24.0073 33.6289 21.0196 33.6289 17.85V11.9109C33.6288 8.74132 32.3866 5.75354 30.1309 3.49788ZM31.578 17.8499C31.578 23.2868 27.1547 27.71 21.7178 27.71H14.9854C14.6842 27.71 14.3982 27.8424 14.2034 28.0721L10.3835 32.5765C10.3677 32.5953 10.3521 32.6131 10.3371 32.6301C10.3366 32.6075 10.3364 32.584 10.3364 32.5596V27.9811C10.3364 27.5602 10.0792 27.1821 9.6877 27.0274C5.93989 25.5468 3.42187 21.8587 3.42187 17.8499V11.9107C3.42187 6.47397 7.84514 2.05078 13.2822 2.05078H21.7178C27.1547 2.05078 31.578 6.47398 31.578 11.9108V17.8499Z" fill="#0E0B3D"></path></svg>